<?xml version="1.0" encoding="iso-8859-1"?>
<!-- Uploaded to: SVG Repo, www.svgrepo.com, Generator: SVG Repo Mixer Tools -->
<!DOCTYPE svg PUBLIC "-//W3C//DTD SVG 1.1//EN" "http://www.w3.org/Graphics/SVG/1.1/DTD/svg11.dtd">
<svg fill="#000000" version="1.1" id="Capa_1" xmlns="http://www.w3.org/2000/svg" xmlns:xlink="http://www.w3.org/1999/xlink" 
	 width="800px" height="800px" viewBox="0 0 594.983 594.983"
	 xml:space="preserve">
<g>
	<g>
		<rect x="36.534" y="542.792" width="46.971" height="36.533"/>
		<rect x="516.695" y="542.792" width="46.972" height="36.533"/>
		<path d="M287.052,365.34h31.317c20.875,0,26.097-8.803,26.097-26.096v-52.193h250.518V135.697
			c0-17.293-14.019-31.312-31.316-31.312h-86.115V67.851c0-28.778-23.414-52.192-52.192-52.192H169.625
			c-28.778,0-52.192,23.414-52.192,52.192v36.534H31.317C14.023,104.385,0,118.403,0,135.697v151.355h260.956v52.193
			C260.956,356.538,266.177,365.34,287.052,365.34z M159.187,104.385V67.851c0-5.757,4.686-10.438,10.438-10.438h255.74
			c5.757,0,10.438,4.681,10.438,10.438v36.534H159.187z"/>
		<path d="M594.983,485.377V323.586H375.777v46.971c0,17.293-14.019,31.312-31.312,31.312H255.74
			c-17.294,0-31.312-14.02-31.312-31.312v-46.971H0v161.791c0,17.295,14.019,31.312,31.317,31.312h532.354
			C580.965,516.696,594.983,502.676,594.983,485.377z"/>
	</g>
</g>
</svg>